<?xml version="1.0" encoding="UTF-8"?>
<svg version="1.1" xmlns="http://www.w3.org/2000/svg" width="1080" height="1080">
<path d="M0 0 C356.4 0 712.8 0 1080 0 C1080 356.4 1080 712.8 1080 1080 C723.6 1080 367.2 1080 0 1080 C0 723.6 0 367.2 0 0 Z " fill="#185C8F" transform="translate(0,0)"/>
<path d="M0 0 C16.12036041 13.69363949 26.61674611 33.35896171 28.59033203 54.41601562 C29.46245334 67.36908196 27.66254123 78.71806466 23.35546875 90.91015625 C22.99453125 91.99683594 22.63359375 93.08351563 22.26171875 94.203125 C19.76538375 100.95214498 16.12136909 106.45205064 11.74536133 112.10449219 C9.22058735 115.41052607 8.00700966 117.8319768 7.35546875 121.91015625 C8.68215576 122.06049316 8.68215576 122.06049316 10.03564453 122.21386719 C20.1520452 123.37100185 30.25736436 124.60284022 40.35546875 125.91015625 C41.39767578 126.04373535 42.43988281 126.17731445 43.51367188 126.31494141 C75.96889308 130.6974523 108.6416145 143.53892155 137.35546875 158.91015625 C138.01450195 159.25900879 138.67353516 159.60786133 139.35253906 159.96728516 C154.36670997 167.96263633 167.65622891 177.6162304 180.35546875 188.91015625 C181.46341797 189.89048828 181.46341797 189.89048828 182.59375 190.890625 C198.61513956 205.94880477 208.84536301 226.78426097 209.87695312 248.75244141 C210.2149066 267.56116144 201.38241954 282.92008215 189.35546875 296.91015625 C188.67871094 297.709375 188.00195312 298.50859375 187.3046875 299.33203125 C167.93480849 321.57021045 142.72681237 338.24489319 117.35546875 352.91015625 C116.68741211 353.2963916 116.01935547 353.68262695 115.33105469 354.08056641 C96.33079491 364.99209312 76.75010379 374.88030203 56.35546875 382.91015625 C55.11893555 383.40370605 55.11893555 383.40370605 53.85742188 383.90722656 C51.342257 384.90461953 48.81975247 385.88011645 46.29296875 386.84765625 C45.54362061 387.14260986 44.79427246 387.43756348 44.0222168 387.74145508 C38.50010061 389.80053887 33.22816983 390.56191189 27.35546875 390.91015625 C27.3296875 389.88019531 27.30390625 388.85023438 27.27734375 387.7890625 C26.51256568 366.0083897 20.80062274 344.09339724 5.35546875 327.91015625 C4.47246094 326.96140625 3.58945312 326.01265625 2.6796875 325.03515625 C-3.1560761 318.9135954 -9.34079718 313.53375804 -16.18798828 308.56274414 C-20.39272879 305.43637201 -20.39272879 305.43637201 -21.6015625 302.91015625 C-21.64453125 300.91015625 -21.64453125 300.91015625 -21.16210938 298.6496582 C-17.09543741 277.12507039 -21.46794187 255.45517194 -32.64453125 236.91015625 C-34.81224085 233.73960726 -37.13275004 230.8106655 -39.64453125 227.91015625 C-40.25683594 227.10449219 -40.86914062 226.29882812 -41.5 225.46875 C-52.36171812 212.50986954 -71.7653215 202.78958326 -88.45947266 201.07714844 C-116.34277368 198.94617884 -138.66743922 205.3301858 -160.09765625 223.60668945 C-181.81314103 242.78253183 -189.33384292 270.30723022 -195.64453125 297.59765625 C-200.33595708 317.8271844 -206.51004674 338.189437 -220.64453125 353.91015625 C-221.17433594 354.53277344 -221.70414063 355.15539062 -222.25 355.796875 C-235.24449983 370.07478222 -257.38482066 377.08397698 -276.171875 378.03857422 C-288.98533874 378.57394952 -300.4320478 377.98570113 -312.64453125 373.91015625 C-314.01931641 373.47703125 -314.01931641 373.47703125 -315.421875 373.03515625 C-334.38808654 366.32357428 -347.43931476 350.92668218 -356.359375 333.57421875 C-368.63803044 306.76738321 -370.38100956 275.21836608 -362.64453125 246.91015625 C-362.43022461 246.08902344 -362.21591797 245.26789063 -361.99511719 244.421875 C-353.14355922 210.87099154 -334.84612514 182.5172376 -310.64453125 157.91015625 C-309.30068359 156.50830078 -309.30068359 156.50830078 -307.9296875 155.078125 C-302.20430255 149.18993289 -296.12198395 143.95273019 -289.64453125 138.91015625 C-289.06993164 138.45914551 -288.49533203 138.00813477 -287.90332031 137.54345703 C-249.7904009 107.75323707 -204.43624762 86.84563135 -157.64453125 74.91015625 C-156.84112305 74.70277832 -156.03771484 74.49540039 -155.20996094 74.28173828 C-152.87875562 73.68598581 -150.54452309 73.10570506 -148.20703125 72.53515625 C-147.52664795 72.36701416 -146.84626465 72.19887207 -146.14526367 72.02563477 C-142.23932018 71.11410005 -138.651167 70.7491477 -134.64453125 70.91015625 C-134.63035156 69.68683594 -134.61617187 68.46351563 -134.6015625 67.203125 C-133.99447964 41.2827623 -126.33298937 20.71924541 -107.49609375 2.39453125 C-76.90985151 -24.25320856 -31.62020897 -24.98790517 0 0 Z " fill="#FEFEFE" transform="translate(618.64453125,234.08984375)"/>
<path d="M0 0 C10.39482589 8.13712615 16.94982567 20.96026384 19.9140625 33.6015625 C20.32440516 37.03158107 20.39122132 40.39963301 20.3515625 43.8515625 C20.34616455 44.76180176 20.3407666 45.67204102 20.33520508 46.60986328 C20.12710717 55.9257406 18.01277867 64.09387412 14.1640625 72.6015625 C12.81622092 75.8363823 12.6602538 78.13284363 12.9140625 81.6015625 C17.49410412 83.97966103 22.03700621 86.05235187 26.8515625 87.9140625 C32.72003406 90.32788665 37.14582262 93.46849154 41.9140625 97.6015625 C42.59082031 98.13523437 43.26757812 98.66890625 43.96484375 99.21875 C55.62636259 108.68382743 64.61050703 123.69508374 66.9140625 138.6015625 C67.60599508 147.27207573 68.16188751 155.22624086 62.9140625 162.6015625 C53.04614201 171.6256294 37.10035133 172.95443925 24.40234375 175.1484375 C22.01998562 175.58227352 19.66560737 176.09349564 17.30078125 176.61328125 C10.11552967 178.05116714 2.83347082 178.64201239 -4.4609375 179.2265625 C-5.27296631 179.29193207 -6.08499512 179.35730164 -6.92163086 179.4246521 C-50.17374767 182.76514085 -94.34969896 181.98665874 -137.3359375 176.1640625 C-138.48280029 176.00920883 -138.48280029 176.00920883 -139.65283203 175.85122681 C-161.76801776 172.81350899 -161.76801776 172.81350899 -168.2734375 168.4765625 C-170.43345775 165.05032349 -170.89246254 162.86586191 -170.6015625 158.859375 C-169.62047233 154.56338927 -167.51332402 152.29534745 -164.0859375 149.6015625 C-161.10046 147.77118046 -158.08366068 146.02022192 -155.04418945 144.2824707 C-134.2323411 132.08277187 -121.03909994 110.53983576 -114.61962891 87.69726562 C-113.38432684 82.84647289 -112.46480451 77.9276741 -111.53198242 73.01147461 C-110.0894893 65.41569929 -108.18999258 58.04426479 -106.0859375 50.6015625 C-105.73473272 49.22192408 -105.38585087 47.84169265 -105.0390625 46.4609375 C-99.5074886 25.1519721 -86.96310583 6.35291232 -68.0859375 -5.3984375 C-45.55092743 -17.64638139 -20.85592377 -13.98206125 0 0 Z " fill="#EE4446" transform="translate(555.0859375,470.3984375)"/>
<path d="M0 0 C1.53624023 -0.01740234 1.53624023 -0.01740234 3.10351562 -0.03515625 C8.64675148 -0.01362912 12.82297459 0.17199815 17.5625 3.375 C21.54909883 7.79258249 22.68656626 10.20488995 22.70776367 16.0871582 C22.71414352 17.28633377 22.72052338 18.48550934 22.72709656 19.72102356 C22.72876579 21.67862862 22.72876579 21.67862862 22.73046875 23.67578125 C22.73368444 25.03183528 22.73704875 26.38788896 22.74055481 27.74394226 C22.74655358 30.59631145 22.74839438 33.44865034 22.74780273 36.30102539 C22.74770206 39.92060868 22.76125155 43.53999159 22.77857494 47.15952778 C22.78981903 49.96775667 22.79171805 52.77593939 22.79119301 55.58418846 C22.79291891 57.5563287 22.80369643 59.52845452 22.81474304 61.50056458 C22.77107832 79.01183505 20.03473383 95.56493701 8.5625 109.375 C7.99015625 110.08269531 7.4178125 110.79039062 6.828125 111.51953125 C-3.24928731 122.78125484 -20.61618144 128.42010549 -35.36328125 129.28125 C-36.88501953 129.32765625 -36.88501953 129.32765625 -38.4375 129.375 C-39.75105469 129.4265625 -41.06460938 129.478125 -42.41796875 129.53125 C-65.39618298 130.14728792 -94.67748068 126.40153677 -112.4375 110.375 C-115.6640281 105.85786066 -115.69640296 102.44957291 -114.9453125 97.16796875 C-112.12171053 81.63815789 -112.12171053 81.63815789 -106.4375 77.375 C-102.33208715 74.6380581 -99.26072861 74.67473455 -94.4375 75.375 C-90.80862623 76.66540672 -87.46359807 78.38941948 -84.0625 80.1875 C-69.10515908 87.96576111 -51.62688508 92.64948824 -34.8125 88.1875 C-29.41691963 86.27265058 -26.60242284 83.33040619 -23.6875 78.4375 C-21.65529432 73.45859608 -21.31221288 68.72684117 -21.40332031 63.38891602 C-21.4195343 62.23073868 -21.43574829 61.07256134 -21.45245361 59.87928772 C-21.47330017 58.64166183 -21.49414673 57.40403595 -21.515625 56.12890625 C-21.535907 54.16619195 -21.55615844 52.20347679 -21.57462692 50.24074459 C-21.62017039 45.42051648 -21.67328973 40.60069035 -21.75976562 35.78100586 C-21.80780452 33.07034875 -21.8423767 30.36016667 -21.86199951 27.64915466 C-21.88071494 25.10242958 -21.91869124 22.55575422 -21.97833252 20.00965881 C-22.00094771 12.72500872 -21.47525574 8.76243582 -16.4375 3.375 C-11.8021416 -0.85465664 -5.92669606 -0.06688434 0 0 Z " fill="#FDFDFE" transform="translate(443.4375,734.625)"/>
<path d="M0 0 C0.66741211 0.18844482 1.33482422 0.37688965 2.02246094 0.57104492 C7.37037563 2.25638649 10.56584472 5.01370674 13.75 9.5625 C14.79390137 12.78910425 14.78637144 15.31507603 14.4375 18.6875 C11.86172676 23.30612787 9.5182921 26.99390263 4.4375 28.6875 C-1.93572858 29.49743113 -6.92276157 28.11766069 -12.7890625 25.66015625 C-18.91328988 23.51236383 -25.26753145 23.48008686 -31.6875 23.4375 C-32.47253906 23.416875 -33.25757813 23.39625 -34.06640625 23.375 C-38.68862768 23.34382144 -41.87242917 23.57513106 -45.5625 26.6875 C-46.45457179 29.7832107 -46.45457179 29.7832107 -46.5625 32.6875 C-42.26558805 35.55210797 -37.96970417 35.15847473 -33.046875 34.1953125 C-16.99075622 31.85529519 3.16835587 31.64382293 16.92578125 41.40234375 C21.32653762 45.14355524 24.04590789 49.4225372 24.73828125 55.1953125 C24.78038351 64.59814975 23.46807548 73.49506395 17.28125 80.91015625 C4.08906564 93.62719838 -16.65443953 95.05710972 -34.02856445 94.98999023 C-42.12154478 94.82489006 -49.71698101 93.69300473 -57.5625 91.6875 C-58.6155835 91.42211426 -58.6155835 91.42211426 -59.68994141 91.15136719 C-67.77878737 89.04692243 -74.76489386 87.05072625 -80.5625 80.6875 C-82.56594057 76.68061887 -82.19398438 72.03187864 -81.5625 67.6875 C-79.34852253 63.32260137 -76.61598892 60.38982595 -72.5625 57.6875 C-64.6932047 56.36434415 -58.07736686 58.59318042 -50.82421875 61.49609375 C-44.63712244 63.75605109 -38.57748962 63.92400867 -32.0625 64 C-31.23363281 64.02900391 -30.40476562 64.05800781 -29.55078125 64.08789062 C-23.93244952 64.1459497 -20.82916798 63.43534115 -16.5625 59.6875 C-15.81164894 57.10013295 -15.81164894 57.10013295 -16.5625 54.6875 C-19.64864706 52.63006863 -20.18344967 52.44437247 -23.64404297 52.52392578 C-24.87210159 52.54351852 -24.87210159 52.54351852 -26.12496948 52.56350708 C-27.00927643 52.58637787 -27.89358337 52.60924866 -28.8046875 52.6328125 C-30.6953047 52.65814112 -32.58593014 52.6828603 -34.4765625 52.70703125 C-37.44297298 52.75629259 -40.40894752 52.81184979 -43.375 52.87939453 C-69.62853026 53.4395757 -69.62853026 53.4395757 -80.1875 45.5 C-85.43139097 40.28929821 -86.65608362 34.45373033 -87.0625 27.25 C-86.82880441 20.28781902 -84.37424191 14.81698673 -79.73046875 9.6484375 C-72.36324785 2.81886389 -64.22753026 -0.10222921 -54.5625 -2.3125 C-53.68207031 -2.52003906 -52.80164063 -2.72757813 -51.89453125 -2.94140625 C-34.84516475 -6.38013602 -16.58124062 -4.85539517 0 0 Z " fill="#FDFDFD" transform="translate(627.5625,769.3125)"/>
<path d="M0 0 C2.7188622 4.531437 2.38608151 7.96648392 1.875 13.125 C1.76800781 14.29675781 1.66101563 15.46851563 1.55078125 16.67578125 C0.18242024 28.56420209 0.18242024 28.56420209 -4.125 33.125 C-7.24306432 35.07101705 -9.50925627 35.33881344 -13.15234375 35.21484375 C-14.10947266 35.19486328 -15.06660156 35.17488281 -16.05273438 35.15429688 C-18.05546524 35.09321423 -20.058078 35.02812499 -22.06054688 34.95898438 C-29.10111755 34.74527553 -29.10111755 34.74527553 -35.125 38.125 C-40.73190756 43.89210492 -41.41034491 50.53489206 -41.43359375 58.2890625 C-41.45873341 59.83854576 -41.4841317 61.38802484 -41.50976562 62.9375 C-41.53855907 65.35122772 -41.5626152 67.76488348 -41.58129883 70.17871094 C-41.60298411 72.52834717 -41.64239531 74.87719913 -41.68359375 77.2265625 C-41.68370956 77.94437897 -41.68382538 78.66219543 -41.6839447 79.40176392 C-41.78978973 84.77984197 -43.17922039 87.85492379 -46.625 91.875 C-50.8693558 95.41196317 -57.23814954 94.38938757 -62.4375 94.4375 C-63.98727539 94.48100586 -63.98727539 94.48100586 -65.56835938 94.52539062 C-71.72258703 94.57670875 -75.53540985 94.4001321 -80.125 90.125 C-82.59154112 86.49508403 -82.42745825 82.74999556 -82.43139648 78.51416016 C-82.43972 77.75268173 -82.44804352 76.99120331 -82.45661926 76.20664978 C-82.48069055 73.69240182 -82.48948763 71.17841342 -82.49609375 68.6640625 C-82.50506203 66.91295291 -82.51418392 65.16184411 -82.52345276 63.41073608 C-82.53993732 59.740602 -82.54764194 56.07055908 -82.55053711 52.40039062 C-82.55592144 47.70372701 -82.59360536 43.00792326 -82.63928127 38.31150246 C-82.66906263 34.69459931 -82.67626089 31.077903 -82.67726326 27.46088791 C-82.68146318 25.72975093 -82.69388838 23.9986132 -82.71478081 22.2675972 C-82.74171993 19.84263589 -82.73686386 17.41966479 -82.72436523 14.99462891 C-82.73919952 14.2837764 -82.75403381 13.57292389 -82.76931763 12.8405304 C-82.68695746 7.21255727 -80.94470138 4.95278858 -77.125 1.125 C-72.61787816 -1.93230158 -67.37641553 -1.24321523 -62.125 -1.25 C-61.12726562 -1.27449219 -60.12953125 -1.29898438 -59.1015625 -1.32421875 C-51.80849282 -1.35354745 -51.80849282 -1.35354745 -48.51953125 0.94921875 C-47.125 3.125 -47.125 3.125 -45.8125 6.3125 C-44.33896108 9.36886962 -44.33896108 9.36886962 -41.125 10.5 C-36.12399804 10.84525746 -32.86505775 7.11506924 -29.15234375 4.20703125 C-21.3468224 -1.16115311 -8.6681941 -5.20091646 0 0 Z " fill="#FDFDFE" transform="translate(747.125,767.875)"/>
<path d="M0 0 C0.87269531 -0.02449219 1.74539063 -0.04898438 2.64453125 -0.07421875 C8.6698773 -0.10140076 12.26598327 0.73384424 17.125 4.375 C20.27612161 8.49630369 20.50806091 11.68770489 20.52905273 16.80810547 C20.53591599 17.53886292 20.54277924 18.26962036 20.54985046 19.02252197 C20.56809565 21.42927693 20.56428385 23.83537846 20.55859375 26.2421875 C20.56315725 27.92221284 20.56846332 29.60223631 20.57447815 31.28225708 C20.5834052 34.80104155 20.58099151 38.31959903 20.57104492 41.83837891 C20.55956616 46.33642668 20.57975155 50.83368812 20.60896206 55.33163261 C20.62735592 58.8010451 20.62702511 62.27027035 20.62132454 65.73971939 C20.62117166 67.39743272 20.62718856 69.05515902 20.63961601 70.71282578 C20.6545821 73.03674577 20.64380897 75.35922881 20.62670898 77.68310547 C20.62654282 79.002612 20.62637665 80.32211853 20.62620544 81.68161011 C20.00510185 86.25853111 18.70985228 88.57065166 16.125 92.375 C11.12253429 96.02263124 6.07784062 95.8287876 0.125 95.75 C-0.7515625 95.76160156 -1.628125 95.77320313 -2.53125 95.78515625 C-8.57646167 95.75784355 -12.89606944 94.84032184 -17.6875 90.875 C-20.47860812 87.34938974 -20.04228474 83.22879443 -20.06787109 78.96948242 C-20.07604858 78.21790359 -20.08422607 77.46632477 -20.09265137 76.69197083 C-20.11746307 74.20481151 -20.13401003 71.71770909 -20.1484375 69.23046875 C-20.15376118 68.38016901 -20.15908485 67.52986927 -20.16456985 66.65380287 C-20.19128242 62.15356981 -20.2106638 57.65336432 -20.22509766 53.15307617 C-20.23844053 49.43114668 -20.26630168 45.70976497 -20.30712891 41.98803711 C-20.3564573 37.49116018 -20.38121869 32.99478036 -20.38832474 28.49764442 C-20.39503455 26.78602992 -20.41024974 25.0744264 -20.43421555 23.36296654 C-20.46588961 20.9642918 -20.46590151 18.56753073 -20.45849609 16.16870117 C-20.47490143 15.46562836 -20.49130676 14.76255554 -20.50820923 14.03817749 C-20.43761433 8.43524191 -18.68454534 6.17960577 -14.875 2.375 C-10.36273613 -0.40301298 -5.1473827 0.00753643 0 0 Z " fill="#FDFDFE" transform="translate(503.875,766.625)"/>
<path d="M0 0 C4.40107254 2.3389648 7.46827034 5.85450944 9.67578125 10.26953125 C10.39061747 16.65781445 10.89205461 22.53956268 6.92578125 27.89453125 C3.39385309 31.97943807 -0.96892943 35.67037244 -6.40234375 36.640625 C-12.62989573 36.83103576 -16.53548195 35.23299822 -21.32421875 31.26953125 C-26.37008989 25.95808794 -27.86457775 21.05825739 -27.703125 13.8359375 C-26.88045736 8.26384843 -23.71174217 4.6926322 -19.88671875 0.76953125 C-13.72516025 -1.82480917 -6.41638846 -2.01657923 0 0 Z " fill="#EC4447" transform="translate(512.32421875,719.73046875)"/>
</svg>
