<?xml version="1.0" encoding="UTF-8"?>
<svg version="1.1" xmlns="http://www.w3.org/2000/svg" width="1080" height="1080">
<path d="M0 0 C356.4 0 712.8 0 1080 0 C1080 356.4 1080 712.8 1080 1080 C723.6 1080 367.2 1080 0 1080 C0 723.6 0 367.2 0 0 Z " fill="#185C8F" transform="translate(0,0)"/>
<path d="M0 0 C0.763125 0.56332031 1.52625 1.12664062 2.3125 1.70703125 C17.67296005 14.03740055 27.48729513 34.7672403 30 54 C30.63439345 64.94111452 30.62952726 75.56169791 27 86 C26.79600586 86.6182666 26.59201172 87.2365332 26.38183594 87.87353516 C23.06774719 97.8568054 18.81076817 106.27056769 12.66796875 114.86328125 C10.45006798 118.02163464 10 118.92680737 10 123 C12.83279831 123.46186929 15.66603483 123.92037631 18.5 124.375 C19.80287964 124.58406982 19.80287964 124.58406982 21.13208008 124.79736328 C26.3108185 125.61508376 31.47628656 126.30390812 36.6875 126.875 C74.06324098 131.50988851 111.37088162 144.23897437 144 163 C144.76634766 163.43812012 145.53269531 163.87624023 146.32226562 164.32763672 C156.89282247 170.42789365 166.67139937 177.13265009 176 185 C176.91394531 185.76054687 177.82789063 186.52109375 178.76953125 187.3046875 C194.71137106 201.06707455 209.19031926 221.62021 211.19628906 243.10205078 C212.59962513 263.6799001 206.48588677 280.86718105 193.0703125 296.50390625 C190.6175505 299.25180059 188.07277664 301.89756026 185.47607422 304.50927734 C184.05871147 305.94070588 182.67117406 307.40148117 181.28515625 308.86328125 C174.3930817 316.01848934 166.93868547 322.07371584 159 328 C158.32582031 328.50789063 157.65164063 329.01578125 156.95703125 329.5390625 C138.36739955 343.48987667 118.55975285 355.20594742 98 366 C96.66050293 366.70769531 96.66050293 366.70769531 95.29394531 367.4296875 C81.7828447 374.5258332 67.98357005 380.5203254 53.72705078 385.95898438 C51.3418789 386.86949224 48.96522399 387.79873757 46.58984375 388.734375 C45.38457031 389.19328125 44.17929687 389.6521875 42.9375 390.125 C41.95652344 390.49882813 40.97554687 390.87265625 39.96484375 391.2578125 C36.1830856 392.20449768 32.89273862 392.12570738 29 392 C28.98582031 390.99324219 28.97164062 389.98648437 28.95703125 388.94921875 C28.22843698 362.97936712 18.63833528 340.02389999 0.078125 321.66796875 C-2.29989893 319.50560699 -4.8272397 317.65243758 -7.453125 315.80078125 C-8.23244385 315.24310059 -9.0117627 314.68541992 -9.81469727 314.11083984 C-11.37259895 313.01218174 -12.95117674 311.94216344 -14.55053711 310.90478516 C-16.69609163 309.39527978 -18.39395449 308.07639777 -20 306 C-20.32696616 303.67739252 -20.00162126 301.91977864 -19.51928711 299.6262207 C-15.27654017 278.16913148 -19.85965739 256.46375651 -31 238 C-33.44967946 234.43513313 -36.08715484 231.19338557 -39 228 C-39.75796875 227.10474609 -39.75796875 227.10474609 -40.53125 226.19140625 C-53.93583949 211.38480613 -75.057038 202.80372542 -94.66796875 201.71875 C-117.99692188 200.8250874 -139.68368789 208.01136598 -157 224 C-157.71663818 224.64727051 -157.71663818 224.64727051 -158.44775391 225.30761719 C-166.21663159 232.38455997 -171.9470997 239.70403218 -177 249 C-177.51949219 249.89589844 -178.03898438 250.79179687 -178.57421875 251.71484375 C-185.47765422 264.34396324 -189.08399569 278.8309711 -192.4375 292.75 C-199.37361399 321.43239458 -207.23204012 351.27419877 -233.875 367.78125 C-241.23382711 371.70062531 -249.08494878 374.23965867 -257.09521484 376.46484375 C-258.90576974 376.97352567 -260.69979897 377.53998088 -262.4921875 378.109375 C-269.12930353 379.72354739 -276.08085219 379.48544887 -282.875 379.5 C-283.61066193 379.50267883 -284.34632385 379.50535767 -285.10427856 379.50811768 C-301.14888648 379.49543782 -314.76420379 376.60061274 -328 367 C-328.8146875 366.42765625 -329.629375 365.8553125 -330.46875 365.265625 C-349.41005539 351.11810678 -360.2566476 328.1655353 -364.22631836 305.21923828 C-366.68069622 287.73400676 -366.20337822 269.15924531 -362 252 C-361.73316406 250.79472656 -361.46632813 249.58945312 -361.19140625 248.34765625 C-348.21526899 194.30925354 -307.81549462 150.53406601 -261.76220703 121.59375 C-256.25920763 118.24316701 -250.64964141 115.09535635 -245 112 C-244.11038574 111.50999512 -243.22077148 111.01999023 -242.30419922 110.51513672 C-211.69342277 93.76990628 -168.96561948 72 -133 72 C-132.96261719 70.87464844 -132.92523438 69.74929688 -132.88671875 68.58984375 C-131.91893021 44.26449221 -125.65761615 22.07560186 -107.37109375 4.9296875 C-76.10573995 -20.51526271 -32.96964848 -24.95121495 0 0 Z " fill="#FEFEFE" transform="translate(617,228)"/>
<path d="M0 0 C1.71993164 -0.0309375 1.71993164 -0.0309375 3.47460938 -0.0625 C10.36027277 -0.09403137 15.98169923 0.51201698 22.3125 3.25 C23.49714844 3.74757813 24.68179688 4.24515625 25.90234375 4.7578125 C39.89213471 11.5160079 50.59509315 21.29622733 56.53515625 35.9296875 C61.71872393 51.4022463 60.58353788 69.08812373 54.19921875 83.9453125 C52.99862479 87.06579901 52.60119308 89.93002957 52.3125 93.25 C56.15855858 95.59107914 59.83642198 97.5030367 64.0625 99.0625 C81.85482748 106.07729981 94.03981812 119.97263861 102.125 136.9375 C106.5489158 147.29877647 108.77576248 159.96474069 105.125 171 C101.55342343 177.40420626 95.85390972 179.93138489 89.03466797 181.91137695 C86.48850012 182.55901472 83.93567862 183.16242756 81.375 183.75 C80.53904297 183.94980469 79.70308594 184.14960937 78.84179688 184.35546875 C24.87407175 196.99220677 -32.56845889 195.99052437 -87.30749512 189.52856445 C-89.65102499 189.25426917 -91.99556991 188.99155596 -94.34082031 188.73242188 C-98.5433464 188.26575929 -102.74059805 187.76492539 -106.9375 187.25 C-108.1332666 187.10852539 -109.3290332 186.96705078 -110.56103516 186.82128906 C-117.85418447 185.84373539 -123.92498456 184.4246224 -129.6875 179.5625 C-131.31467289 175.79966269 -131.42578879 172.26715957 -130.6875 168.25 C-126.44384956 162.30888938 -118.83843027 158.21933142 -112.6875 154.375 C-86.9293937 136.1296747 -76.27883206 109.29711764 -70.87963867 79.31860352 C-69.61372612 72.48593209 -67.70460002 65.89638321 -65.6875 59.25 C-65.26017578 57.64898437 -65.26017578 57.64898437 -64.82421875 56.015625 C-61.19817469 42.91713984 -54.81268218 31.32933622 -45.6875 21.25 C-44.98882812 20.47011719 -44.29015625 19.69023437 -43.5703125 18.88671875 C-31.18360409 5.77267692 -17.65682276 0.07808435 0 0 Z " fill="#EE4446" transform="translate(515.6875,453.75)"/>
<path d="M0 0 C5.96917711 3.63227053 11.36946274 7.87351974 16.8137207 12.22802734 C23.35924264 17.42288602 30.21043089 22.06182289 37.2890625 26.49609375 C38.36929687 27.18058594 39.44953125 27.86507812 40.5625 28.5703125 C54.78700113 36.94696317 70.227347 36.9383953 86.2890625 37.49609375 C86.2890625 47.39609375 86.2890625 57.29609375 86.2890625 67.49609375 C81.6896875 67.61984375 77.0903125 67.74359375 72.3515625 67.87109375 C57.06870872 68.35812794 42.65314416 69.24296976 27.8671875 73.51171875 C24.53361212 74.42881591 21.25242714 75.07570973 17.8515625 75.68359375 C6.93589696 77.94328469 -3.35101929 82.47416873 -13.7109375 86.49609375 C-36.49820232 95.29489016 -63.4556382 105.12196704 -87.7109375 96.91796875 C-92.51315797 94.64191634 -96.09761821 91.3428316 -99.7109375 87.49609375 C-101.83132385 90.11123692 -103.84185494 92.69246991 -105.7109375 95.49609375 C-114.80426161 101.19610195 -127.41042283 100.836915 -137.7109375 99.49609375 C-146.29471216 96.99401475 -153.05766971 91.29562364 -159.7109375 85.49609375 C-159.7109375 86.15609375 -159.7109375 86.81609375 -159.7109375 87.49609375 C-167.21666051 95.91534226 -181.61549728 98.75573115 -192.31640625 99.734375 C-202.39137212 100.02397311 -211.7699528 97.06959486 -219.2265625 90.07421875 C-223.80964126 85.21337764 -226.15987299 79.59646539 -228.7109375 73.49609375 C-229.47900986 71.80733529 -230.24961012 70.11972289 -231.0234375 68.43359375 C-232.7109375 64.74510561 -232.7109375 64.74510561 -232.7109375 62.49609375 C-236.27357026 63.14119612 -239.83601986 63.78730455 -243.3984375 64.43359375 C-244.90954102 64.70719727 -244.90954102 64.70719727 -246.45117188 64.98632812 C-247.42763672 65.16357422 -248.40410156 65.34082031 -249.41015625 65.5234375 C-250.30565186 65.68577881 -251.20114746 65.84812012 -252.1237793 66.01538086 C-254.65776932 66.48621471 -257.18488857 66.9845141 -259.7109375 67.49609375 C-259.69933594 68.45386719 -259.68773437 69.41164063 -259.67578125 70.3984375 C-259.61293634 77.79068752 -259.68315489 85.17323117 -260.0234375 92.55859375 C-260.05715454 93.59197876 -260.05715454 93.59197876 -260.09155273 94.64624023 C-260.35156757 99.50044003 -261.67279753 103.11918815 -263.7109375 107.49609375 C-264.29220294 109.36536145 -264.85540934 111.24036207 -265.3984375 113.12109375 C-267.73766273 120.2917188 -271.55885671 126.24700245 -275.7109375 132.49609375 C-276.34322266 133.54990234 -276.34322266 133.54990234 -276.98828125 134.625 C-283.1439484 144.41711109 -293.42486031 148.05470099 -304.15625 150.6171875 C-314.13755057 152.71464633 -323.94290852 152.85829993 -332.7109375 147.20703125 C-336.0374741 144.69871535 -337.48485462 143.54044249 -338.3984375 139.3203125 C-338.7341598 135.21191087 -338.82242285 131.17713084 -338.7734375 127.05859375 C-338.76892578 126.32705078 -338.76441406 125.59550781 -338.75976562 124.84179688 C-338.74811898 123.05985956 -338.73018941 121.27796512 -338.7109375 119.49609375 C-337.23560547 119.38394531 -337.23560547 119.38394531 -335.73046875 119.26953125 C-327.08624073 118.49453878 -318.88106386 116.98208826 -310.5234375 114.62109375 C-309.63954346 114.37665527 -308.75564941 114.1322168 -307.8449707 113.88037109 C-300.1258804 111.60740066 -294.87814128 108.71880356 -290.8125 101.63671875 C-285.7618774 91.82203369 -286.36482042 84.67901599 -288.77734375 74.10546875 C-290.09527242 67.92937737 -290.97284635 61.67802243 -291.8984375 55.43359375 C-292.07729492 54.24338623 -292.25615234 53.05317871 -292.44042969 51.8269043 C-292.60575195 50.69551025 -292.77107422 49.56411621 -292.94140625 48.3984375 C-293.08989014 47.38257568 -293.23837402 46.36671387 -293.39135742 45.32006836 C-293.68996101 42.68145288 -293.77079604 40.14840432 -293.7109375 37.49609375 C-293.16590073 37.42172089 -292.62086395 37.34734802 -292.05931091 37.27072144 C-285.08718588 36.31723523 -278.11727552 35.34830365 -271.1484375 34.37109375 C-270.03658081 34.21535889 -268.92472412 34.05962402 -267.7791748 33.89916992 C-252.64927098 31.76754991 -237.63067768 29.39214003 -222.68920898 26.18701172 C-221.55684814 25.94869629 -220.4244873 25.71038086 -219.2578125 25.46484375 C-218.29713867 25.25279297 -217.33646484 25.04074219 -216.34667969 24.82226562 C-213.53544204 24.47437627 -211.43780545 24.78624241 -208.7109375 25.49609375 C-208.7015918 26.21152344 -208.69224609 26.92695312 -208.68261719 27.6640625 C-208.62854905 30.94207567 -208.54497279 34.21871736 -208.4609375 37.49609375 C-208.44675781 38.62144531 -208.43257812 39.74679687 -208.41796875 40.90625 C-208.21519223 47.84120699 -207.50470513 52.62544602 -203.7109375 58.49609375 C-198.82052713 61.75636733 -193.46181729 61.25137546 -187.7109375 61.49609375 C-186.71449219 61.62757813 -185.71804688 61.7590625 -184.69140625 61.89453125 C-181.43009971 62.0861045 -179.6448729 61.97223 -176.7109375 60.49609375 C-173.08973454 55.55466055 -170.91482029 50.18157795 -168.7109375 44.49609375 C-168.4128418 43.75584961 -168.11474609 43.01560547 -167.80761719 42.25292969 C-164.07179384 33.08353968 -164.07179384 33.08353968 -161.7109375 23.49609375 C-155.00390972 24.57787242 -148.61394756 26.31986947 -142.1484375 28.37109375 C-141.33842285 28.61553223 -140.5284082 28.8599707 -139.69384766 29.11181641 C-138.93507324 29.3597998 -138.17629883 29.6077832 -137.39453125 29.86328125 C-136.70931396 30.08097168 -136.02409668 30.29866211 -135.31811523 30.52294922 C-133.7109375 31.49609375 -133.7109375 31.49609375 -132.89111328 33.29101562 C-132.66743582 36.02848827 -133.23138008 37.82178552 -134.14453125 40.41015625 C-134.46357422 41.33570313 -134.78261719 42.26125 -135.11132812 43.21484375 C-135.45357422 44.17390625 -135.79582031 45.13296875 -136.1484375 46.12109375 C-136.8162386 48.02909688 -137.48172237 49.93791317 -138.14453125 51.84765625 C-138.59397095 53.11343506 -138.59397095 53.11343506 -139.05249023 54.40478516 C-139.8110428 56.44862109 -139.8110428 56.44862109 -139.7109375 58.49609375 C-131.31232233 62.16710135 -123.90143249 64.3139398 -114.7109375 64.49609375 C-113.71799941 61.51727948 -113.58973965 59.58122136 -113.59741211 56.47387695 C-113.59748764 55.4530452 -113.59756317 54.43221344 -113.59764099 53.38044739 C-113.60280228 52.2803685 -113.60796356 51.18028961 -113.61328125 50.046875 C-113.6146962 48.91912155 -113.61611115 47.7913681 -113.61756897 46.62944031 C-113.6231728 43.02246463 -113.63572597 39.41555071 -113.6484375 35.80859375 C-113.65345201 33.36523527 -113.658015 30.92187582 -113.66210938 28.47851562 C-113.67229317 22.48433199 -113.69186797 16.49028211 -113.7109375 10.49609375 C-103.1509375 10.49609375 -92.5909375 10.49609375 -81.7109375 10.49609375 C-81.60136719 13.78191406 -81.49179687 17.06773437 -81.37890625 20.453125 C-81.263133 23.63043158 -81.14242801 26.80751502 -81.02124023 29.98461914 C-80.939577 32.19504631 -80.86305318 34.40566953 -80.79174805 36.61645508 C-80.68844318 39.79183306 -80.56675419 42.96605034 -80.44140625 46.140625 C-80.3990107 47.62668999 -80.3990107 47.62668999 -80.35575867 49.14277649 C-80.31594376 50.06350449 -80.27612885 50.98423248 -80.23510742 51.93286133 C-80.1918055 53.14864616 -80.1918055 53.14864616 -80.14762878 54.38899231 C-79.6072245 56.99652463 -78.80021407 57.8833753 -76.7109375 59.49609375 C-58.373633 65.60852858 -31.83783571 60.89315266 -13.3359375 57.18359375 C-12.5642926 57.02906738 -11.79264771 56.87454102 -10.99761963 56.71533203 C-2.78794414 55.0386044 5.32115802 53.1136341 13.2890625 50.49609375 C10.76222135 48.81153298 8.2031615 47.30928013 5.55395508 45.83056641 C-1.15596298 42.07803241 -7.48703014 38.02034861 -13.7109375 33.49609375 C-18.67748136 30.18506451 -22.80382259 29.39568954 -28.7109375 30.49609375 C-34.86125814 33.70484658 -40.36831942 38.02211354 -45.81665039 42.28686523 C-47.7109375 43.49609375 -47.7109375 43.49609375 -50.7109375 43.49609375 C-52.4284668 42.48632812 -52.4284668 42.48632812 -54.28515625 41.08984375 C-54.95224609 40.59355469 -55.61933594 40.09726562 -56.30664062 39.5859375 C-57.34208008 38.79896484 -57.34208008 38.79896484 -58.3984375 37.99609375 C-59.4512793 37.20912109 -59.4512793 37.20912109 -60.52539062 36.40625 C-62.25868532 35.10922676 -63.98544465 33.80347825 -65.7109375 32.49609375 C-63.4242037 25.93364416 -58.95001983 20.90285644 -54.7109375 15.49609375 C-54.29714844 14.95903809 -53.88335938 14.42198242 -53.45703125 13.86865234 C-38.8287876 -5.04144789 -21.76099769 -12.07202321 0 0 Z " fill="#FDFDFE" transform="translate(658.7109375,713.50390625)"/>
<path d="M0 0 C5.36565161 2.33648798 9.36129546 5.99352801 11.71484375 11.3828125 C12.93374534 17.90558318 12.67615945 23.68279241 9.21484375 29.4453125 C5.17385117 34.557638 1.23738504 36.84636079 -5.18359375 37.82421875 C-10.45188098 38.13606951 -14.38288058 37.88383642 -18.78515625 34.8203125 C-23.05839892 30.99219927 -25.88054214 27.53136141 -26.625 21.73828125 C-26.82557967 15.87333169 -26.31471363 11.4320748 -23.28515625 6.3828125 C-16.70566461 -0.52841821 -9.23863901 -2.49522216 0 0 Z " fill="#EC4447" transform="translate(667.28515625,830.6171875)"/>
</svg>
