<?xml version="1.0" encoding="UTF-8"?>
<svg id="Layer_1" data-name="Layer 1" xmlns="http://www.w3.org/2000/svg" viewBox="0 0 814.47 385.04">
  <defs>
    <style>
      .cls-1 {
        fill: #231f20;
      }

      .cls-2 {
        fill: #6d6e71;
      }

      .cls-3 {
        fill: #00a79d;
      }
    </style>
  </defs>
  <rect class="cls-2" x="-11.35" y="-12.45" width="837.17" height="409.95"/>
  <g>
    <g>
      <path class="cls-1" d="M222.93,235.26s-.04,0-.06,0c-5.81-.68-10.85-1.8-15.14-3.34-4.38,28.05-14.03,51.83-28.95,71.33-14.92,19.49-36.9,29.24-65.95,29.24-8.56,0-16.81-.8-24.77-2.39-9.55-1.79-17.16-5.22-22.83-10.29-5.67-5.07-8.5-13.09-8.5-24.02s2.33-18.76,7.01-24.62c4.67-5.88,10.89-8.81,18.65-8.81.99,0,2.88.2,5.67.6,8.16,1.59,16.71,2.39,25.67,2.39,21.48,0,37.99-5.53,49.54-16.57,11.53-11.04,17.3-26.21,17.3-45.51-.2-8.75-1.99-15.96-5.37-21.63-3.38-5.67-8.55-12.09-15.52-19.25-7.56-7.76-13.28-14.97-17.16-21.64-3.88-6.66-5.82-15.37-5.82-26.11,0-7.76,3.14-14.33,9.4-19.7,6.27-5.37,13.58-8.05,21.94-8.05,8.95,0,17.16,1.14,24.62,3.43,7.46,2.29,11.19,5.02,11.19,8.2,0,17.51,1.09,35.62,3.28,54.32,1.79,7.16,5.82,11.64,12.09,13.43,1.21.35,2.43.66,3.65.93v-13.25c-.5-.14-.78-1.05-.97-3.97-2.02-17.62-3.05-34.93-3.05-51.46,0-7.23-3.78-17.02-21.8-22.55-8.86-2.71-18.62-4.08-29.01-4.08-12,0-22.66,3.92-31.7,11.66-9.57,8.21-14.64,18.96-14.64,31.09,0,13.38,2.65,24.7,7.86,33.66,4.54,7.8,10.88,15.84,19.37,24.54,6.11,6.29,10.62,11.84,13.39,16.48,2,3.36,3.1,8.11,3.25,14.13-.03,15.07-4.18,26.36-12.67,34.49-8.61,8.23-21.78,12.41-39.17,12.41-7.95,0-15.62-.71-22.8-2.11l-.73-.13c-3.65-.52-5.99-.75-7.81-.75-12.35,0-22.86,5-30.38,14.45-6.82,8.56-10.28,19.99-10.28,33.98,0,15.34,4.54,27.18,13.5,35.2,7.7,6.88,17.78,11.54,29.98,13.84,8.87,1.77,18.16,2.66,27.62,2.66,33.83,0,60.02-11.82,77.87-35.13,13.49-17.64,23.14-38.57,28.78-62.4,1.11.15,2.24,1.02,3.39,1.14.02,0-.02,0,0,0l.06-15.83Z"/>
      <path class="cls-1" d="M558.76,235.9v15.19h-15.6c-5.26-.02-10.27-.29-15-.81-6.55-.71-12.58-1.91-18.03-3.57-5.66-1.73-10.86-4.23-15.56-7.5-10.29,7.82-22.86,11.88-37.06,11.88-14.9,0-31.46-4.17-50.38-12.72-11.55,8.45-25.97,12.72-43.02,12.72-9.27,0-20.35-1.9-33.87-5.81-9.81-2.84-19.5-6.66-28.93-11.39-12.43,9.09-28.44,14.6-47.84,16.47-4.79.47-9.79.71-15,.73h-15.6v-15.84c4.54.54,9.53.82,15,.83.1.01.2.01.31.01h.29c5.27-.02,10.27-.28,15-.79,20.04-2.14,35.34-8.63,45.88-19.5,11.34,6.56,23.02,11.59,35.06,15.07,12.04,3.48,21.94,5.22,29.7,5.22,17.31,0,30.83-5.17,40.58-15.52,20.49,10.35,38.1,15.52,52.83,15.52,15.51,0,27.75-5.87,36.7-17.61,5.37,6.77,12.13,11.39,20.29,13.88,4.14,1.26,8.69,2.21,13.65,2.83,4.64.58,9.64.88,15,.9h.6c5.18,0,10.17-.07,15-.19Z"/>
      <path class="cls-1" d="M543.68,153.94c-10.2-.01-14.21-2.05-15.46-2.93-.67-.48-1.69-1.19-1.69-4.75,0-12.85-1.04-28.01-3.09-45.06l-.02-.17c-1.08-8.14-2.09-14.22-3.09-18.57-1.47-6.34-4.27-11.87-8.33-16.44-3.68-4.14-10.47-9.07-21.96-9.07-9.19,0-15.8,1.8-20.8,5.67-5.88,4.54-9.12,11.56-9.12,19.78,0,3.99.77,9.18,2.43,16.3l1.4,7.03c1.82,10.58,2.74,20,2.74,28,0,24.69-7.91,24.69-12.16,24.69h-.41c-1.74.05-6.33-.37-15.8-4.29.11-3.47.17-6.37.17-8.76,0-9.03-.31-18.58-.92-28.39l-.05-.58c-.09-.88-.25-3.33-.37-9.82-.15-7.7-1.83-14.67-5-20.71-3.35-6.38-10.94-13.99-28.05-13.99-9.51,0-16.79,2.85-21.65,8.47-4.3,4.98-6.48,11.5-6.48,19.36,0,3.69.33,7.76,1.02,12.41l.84,7.27c.92,11.21,1.12,16.1,1.12,18.22,0,11.42-2.2,16.48-3.51,18.48-1.26,1.93-5.08,2.33-8.05,2.33-8.98,0-19.76-1.96-32.12-5.83.18-3.59.27-7.4.27-11.4,0-7.89-.32-16.1-.94-24.4l-.03-.38c-.09-.89-.26-3.34-.38-9.83-.15-7.7-1.83-14.66-5-20.71-3.35-6.38-10.94-13.99-28.05-13.99-9.51,0-16.79,2.85-21.65,8.47-4.3,4.98-6.48,11.49-6.48,19.36,0,3.7.33,7.76,1.02,12.41l.88,7.58c.52,4.36.78,8.48.78,12.24,0,9.5-1.88,13.46-2.69,14.72-.5.77-2,3.11-7.69,4.71-4.14,1.15-12.15,2.53-26.84,2.57h-15.6v13.25c4.91,1.13,9.91,1.71,15,1.75h.6c5.51-.01,10.51-.2,15-.57,6.3-.5,11.6-1.36,15.89-2.56,7.46-2.09,12.87-5.77,16.26-11.04,3.38-5.27,5.07-12.88,5.07-22.83,0-4.38-.29-9.05-.89-14.03l-.9-7.76c-.59-3.97-.89-7.46-.89-10.44,0-4.18.94-7.36,2.83-9.55,1.89-2.19,5.32-3.28,10.3-3.28,7.76,0,12.68,1.99,14.77,5.96,2.09,3.99,3.18,8.66,3.28,14.03s.25,9.06.45,11.04c.6,7.96.9,15.72.9,23.28,0,8.36-.4,15.62-1.2,21.78,18.7,6.97,34.72,10.45,48.05,10.45,9.75,0,16.61-3.03,20.59-9.1,3.98-6.07,5.97-14.97,5.97-26.71,0-3.58-.4-10.15-1.19-19.7l-.9-7.76c-.6-3.97-.89-7.46-.89-10.44,0-4.18.94-7.36,2.83-9.55,1.89-2.19,5.32-3.28,10.3-3.28,7.75,0,12.68,1.99,14.77,5.96,2.09,3.99,3.18,8.66,3.28,14.03s.25,9.06.45,11.04c.6,9.55.89,18.71.89,27.46,0,4.18-.2,10.25-.59,18.2,13.72,6.77,24.27,10.05,31.63,9.85,18.1,0,27.16-13.23,27.16-39.69,0-8.95-1-19.2-2.99-30.74l-1.49-7.46c-1.39-5.97-2.09-10.34-2.09-13.13,0-3.58,1.09-6.22,3.28-7.91s6.07-2.54,11.64-2.54c4.78,0,8.36,1.35,10.75,4.03,2.38,2.69,4.03,5.97,4.92,9.85.9,3.88,1.84,9.6,2.84,17.16,1.98,16.52,2.98,30.94,2.98,43.27,0,10.86,5.54,17.82,16.63,20.88,4.33,1.19,9.5,1.79,15.52,1.8h.08c5.17,0,10.17-.03,15-.09v-14.91h-15.08Z"/>
      <path class="cls-1" d="M688.36,271.14l-15.82-15.81c-5.99-6-13.48-9.17-21.65-9.17-5.19,0-13.04,1.48-21,8.56l-16.46,16.42-.56.6c-5.91,6.59-8.91,13.77-8.91,21.35,0,5.56,1.64,13.82,9.47,21.65l15.82,15.81c5.99,6,13.48,9.17,21.64,9.17s15.64-3.16,21.65-9.17l15.69-15.68c6.28-6,9.6-13.53,9.6-21.78s-3.28-15.75-9.47-21.95ZM677.75,304.13l-15.81,15.82c-3.19,3.18-6.87,4.77-11.04,4.77s-7.87-1.59-11.05-4.77l-15.81-15.82c-3.39-3.38-5.08-7.06-5.08-11.04s1.69-7.56,5.08-11.34l15.81-15.82c3.59-3.18,7.26-4.77,11.05-4.77,4.17,0,7.85,1.59,11.04,4.77l15.81,15.82c3.38,3.38,5.08,7.16,5.08,11.34s-1.7,7.86-5.08,11.04Z"/>
      <path class="cls-1" d="M763.54,107.08c-6.94-9.43-17.07-14.58-29.28-14.91h-.4c-4.67,0-9.37.67-13.99,1.99-.28.06-.8.17-1.62.3-.09.02-.23.04-.42.06-.11-.1-.25-.22-.4-.37-.49-.47-3.2-3.37-8.35-13.68l-.11-.21c-6.4-12.32-14.89-22.48-25.25-30.19-11.16-8.3-24.01-12.51-38.2-12.51-20.96,0-42.45,5.94-63.88,17.64-9.04,4.93-16.09,11.8-20.95,20.42-4.75,8.42-7.16,17.42-7.16,26.77,0,8.56,2.07,16.91,6.15,24.8l.09.16c4.33,8.14,10.34,14.83,17.84,19.86,3.73,2.52,7.6,4.45,11.59,5.8-9.27.43-19.3.8-30.44.93v14.91c26.67-.32,48.13-1.48,64.38-3.49,19.3-2.39,32.73-4.97,40.29-7.76,7.56-2.78,15.52-6.56,23.87-11.34l-6.56-9.84c-7.56-11.14-16.42-16.72-26.56-16.72-4.98,0-10.3,1.35-15.97,4.03-5.67,2.69-12.28,6.62-19.84,11.79-4.98,3.18-10.05,4.77-15.22,4.77-5.97,0-11.69-1.83-17.16-5.52-5.48-3.68-9.8-8.5-12.98-14.47-2.99-5.77-4.48-11.74-4.48-17.91,0-6.76,1.74-13.22,5.22-19.39s8.51-11.05,15.07-14.63c19.3-10.54,38.2-15.81,56.7-15.81,10.94,0,20.69,3.18,29.25,9.55,8.55,6.37,15.52,14.72,20.89,25.06,4.37,8.76,8.15,14.68,11.34,17.76,3.18,3.09,6.46,4.63,9.85,4.63,1.39,0,2.68-.1,3.88-.3,1.19-.2,2.18-.4,2.98-.6,3.38-.99,6.76-1.49,10.15-1.49,7.56.2,13.43,3.13,17.61,8.8,4.17,5.67,6.26,12.39,6.26,20.15,0,8.75-2.73,16.41-8.2,22.98-5.48,6.56-13.28,9.84-23.43,9.84h-4.48c-6.76,0-12.34.9-16.71,2.69-4.38,1.79-7.91,4.03-10.59,6.71s-5.92,6.52-9.7,11.49c-6.97,9.36-14.58,17.12-22.83,23.28-8.26,6.17-21.89,11.54-40.89,16.12-15.88,3.82-36.6,6.05-62.14,6.67v15.18c26.94-.64,48.52-3.14,65.66-7.27,21.19-5.11,36.35-11.22,46.34-18.68,9.36-6.99,18.05-15.83,25.84-26.28,3.34-4.38,6.14-7.72,8.32-9.9,1.24-1.24,3.2-2.43,5.67-3.44,1.75-.71,5.08-1.57,11.03-1.57h4.48c18.38,0,29.15-8.28,34.95-15.24,7.75-9.31,11.68-20.27,11.68-32.58,0-11-3.09-20.77-9.19-29.04ZM626.45,148.15l.39-.25c6.88-4.71,12.86-8.28,17.79-10.61,3.62-1.72,6.84-2.59,9.55-2.59,1.67,0,5.66,0,10.98,6.02-2.36,1.04-4.67,1.98-6.92,2.81-4.33,1.59-13.98,4.05-35.45,6.76,1.23-.65,2.45-1.36,3.66-2.14Z"/>
    </g>
    <g>
      <path class="cls-3" d="M238.47,236.09c-12.73,0-22.98-1.39-30.74-4.18-4.38,28.05-14.03,51.82-28.95,71.32-14.92,19.5-36.91,29.25-65.95,29.25-8.56,0-16.81-.8-24.77-2.39-9.55-1.79-17.16-5.22-22.83-10.3-5.67-5.07-8.5-13.08-8.5-24.02s2.34-18.75,7.01-24.62c4.67-5.87,10.89-8.8,18.65-8.8.99,0,2.88.2,5.67.6,8.16,1.59,16.71,2.39,25.67,2.39,21.49,0,38-5.52,49.54-16.56,11.54-11.04,17.31-26.21,17.31-45.51-.2-8.75-1.99-15.97-5.37-21.64-3.38-5.67-8.56-12.09-15.52-19.25-7.56-7.76-13.28-14.97-17.16-21.64-3.88-6.66-5.82-15.37-5.82-26.11,0-7.76,3.13-14.33,9.4-19.7,6.27-5.37,13.58-8.06,21.93-8.06,8.95,0,17.16,1.15,24.62,3.43,7.46,2.29,11.19,5.03,11.19,8.21,0,17.51,1.09,35.62,3.28,54.31,1.79,7.16,5.82,11.64,12.09,13.43,6.27,1.79,12.68,2.69,19.25,2.69v67.15Z"/>
      <path class="cls-3" d="M543.76,168.94v67.15c-11.34,0-21.09-1.24-29.25-3.73-8.16-2.49-14.92-7.11-20.29-13.88-8.95,11.74-21.19,17.61-36.71,17.61s-32.33-5.17-52.82-15.52c-9.75,10.35-23.28,15.52-40.59,15.52-7.76,0-17.66-1.74-29.69-5.22-12.04-3.48-23.73-8.5-35.07-15.07-13.13,13.53-33.62,20.29-61.48,20.29v-67.15c13.53,0,24.02-1.04,31.48-3.13s12.88-5.77,16.26-11.04c3.38-5.27,5.07-12.88,5.07-22.83,0-4.37-.3-9.05-.9-14.03l-.9-7.76c-.6-3.98-.89-7.46-.89-10.45,0-4.18.94-7.36,2.83-9.55,1.89-2.19,5.32-3.28,10.29-3.28,7.76,0,12.68,1.99,14.77,5.97,2.09,3.98,3.18,8.65,3.28,14.03.1,5.37.25,9.06.45,11.04.6,7.96.9,15.72.9,23.28,0,8.36-.4,15.62-1.19,21.79,18.7,6.97,34.72,10.45,48.05,10.45,9.75,0,16.61-3.03,20.59-9.1,3.98-6.07,5.97-14.97,5.97-26.71,0-3.58-.4-10.15-1.19-19.7l-.9-7.76c-.6-3.98-.9-7.46-.9-10.45,0-4.18.94-7.36,2.83-9.55,1.89-2.19,5.32-3.28,10.3-3.28,7.76,0,12.68,1.99,14.77,5.97,2.09,3.98,3.18,8.65,3.28,14.03.1,5.37.25,9.06.45,11.04.6,9.55.89,18.7.89,27.46,0,4.18-.2,10.25-.6,18.2,13.73,6.77,24.27,10.05,31.63,9.85,18.1,0,27.16-13.23,27.16-39.69,0-8.95-1-19.2-2.98-30.74l-1.49-7.46c-1.39-5.97-2.09-10.34-2.09-13.13,0-3.58,1.09-6.22,3.28-7.91,2.19-1.69,6.07-2.54,11.64-2.54,4.77,0,8.36,1.34,10.74,4.03,2.39,2.69,4.03,5.97,4.92,9.85.9,3.88,1.84,9.6,2.84,17.16,1.99,16.52,2.98,30.94,2.98,43.27,0,15.12,10.74,22.68,32.23,22.68Z"/>
      <path class="cls-3" d="M751.47,115.97c4.18,5.67,6.27,12.38,6.27,20.14,0,8.76-2.74,16.41-8.21,22.98-5.47,6.57-13.28,9.85-23.43,9.85h-4.48c-6.77,0-12.34.9-16.71,2.69-4.38,1.79-7.91,4.03-10.59,6.71-2.69,2.69-5.92,6.52-9.7,11.49-6.97,9.35-14.58,17.11-22.83,23.28-8.26,6.17-21.89,11.54-40.88,16.11-19,4.58-44.91,6.86-77.74,6.86v-67.15c34.02,0,60.68-1.19,79.98-3.58,19.29-2.39,32.72-4.97,40.29-7.76,7.56-2.78,15.52-6.57,23.87-11.34l-6.57-9.85c-7.56-11.14-16.41-16.71-26.56-16.71-4.98,0-10.3,1.34-15.97,4.03s-12.29,6.62-19.85,11.79c-4.98,3.18-10.05,4.77-15.22,4.77-5.97,0-11.69-1.84-17.16-5.52-5.47-3.68-9.8-8.5-12.98-14.47-2.98-5.77-4.48-11.74-4.48-17.91,0-6.76,1.74-13.23,5.22-19.4,3.48-6.16,8.51-11.04,15.07-14.62,19.29-10.54,38.2-15.82,56.7-15.82,10.94,0,20.69,3.18,29.25,9.55,8.55,6.37,15.52,14.73,20.89,25.07,4.37,8.76,8.16,14.67,11.34,17.76,3.18,3.09,6.46,4.63,9.85,4.63,1.39,0,2.69-.1,3.88-.3,1.19-.2,2.19-.4,2.98-.6,3.38-.99,6.76-1.49,10.15-1.49,7.56.2,13.43,3.13,17.61,8.8ZM650.9,261.16c4.18,0,7.86,1.59,11.04,4.77l15.82,15.82c3.38,3.38,5.07,7.16,5.07,11.34s-1.69,7.86-5.07,11.04l-15.82,15.82c-3.18,3.18-6.86,4.77-11.04,4.77s-7.86-1.59-11.04-4.77l-15.82-15.82c-3.38-3.39-5.07-7.06-5.07-11.04s1.69-7.56,5.07-11.34l15.82-15.82c3.58-3.18,7.26-4.77,11.04-4.77Z"/>
    </g>
  </g>
</svg>